<svg width="512" height="188" viewBox="0 0 512 188" fill="none" xmlns="http://www.w3.org/2000/svg">
<g clip-path="url(#clip0_1_2)">
<path d="M184 160C177.422 160 171.733 157.689 166.933 153.067C162.311 148.267 160 142.578 160 136C160 129.244 162.311 123.556 166.933 118.933C171.733 114.311 177.422 112 184 112H197.333V130.667H186.667C185.244 130.667 184 131.2 182.933 132.267C181.867 133.333 181.333 134.578 181.333 136C181.333 137.422 181.867 138.667 182.933 139.733C184 140.8 185.244 141.333 186.667 141.333H197.333V160H184ZM229.38 160L208.047 165.333V16L229.38 10.6667V111.733C231.158 111.911 232.936 112 234.714 112C242.002 112 248.225 114.311 253.38 118.933C258.714 123.556 261.38 129.244 261.38 136V160L240.047 165.333V136C240.047 134.578 239.514 133.333 238.447 132.267C237.38 131.2 236.136 130.667 234.714 130.667C233.291 130.667 232.047 131.2 230.98 132.267C229.914 133.333 229.38 134.578 229.38 136V160ZM304.109 160V159.733C302.509 159.911 300.732 160 298.776 160C291.487 160 285.176 158.044 279.843 154.133C274.687 150.044 272.109 144 272.109 136C272.109 129.244 274.687 123.556 279.843 118.933C285.176 114.311 291.487 112 298.776 112C304.109 112 309.176 111.378 313.976 110.133C318.954 108.889 322.776 105.956 325.443 101.333V136V160H304.109ZM298.776 141.333C300.198 141.333 301.443 140.8 302.509 139.733C303.576 138.667 304.109 137.422 304.109 136C304.109 134.578 303.576 133.333 302.509 132.267C301.443 131.2 300.198 130.667 298.776 130.667C297.354 130.667 296.109 131.2 295.043 132.267C293.976 133.333 293.443 134.578 293.443 136C293.443 137.422 293.976 138.667 295.043 139.733C296.109 140.8 297.354 141.333 298.776 141.333ZM357.505 138.667C357.505 142.044 358.75 144.533 361.239 146.133C363.905 147.733 366.839 148.533 370.039 148.533C373.061 148.533 375.994 147.911 378.839 146.667C375.994 151.111 372.616 154.489 368.705 156.8C364.794 158.933 360.794 160 356.705 160C351.372 160 346.572 158.133 342.305 154.4C338.216 150.489 336.172 145.244 336.172 138.667V117.333H330.839V112.267H336.172V96L357.505 90.6667V112.267H378.839V117.333H357.505V138.667ZM413.492 160C406.914 160 401.226 157.689 396.426 153.067C391.803 148.267 389.492 142.578 389.492 136C389.492 129.244 391.803 123.556 396.426 118.933C401.226 114.311 406.914 112 413.492 112H426.826V130.667H416.159C414.737 130.667 413.492 131.2 412.426 132.267C411.359 133.333 410.826 134.578 410.826 136C410.826 137.422 411.359 138.667 412.426 139.733C413.492 140.8 414.737 141.333 416.159 141.333H426.826V160H413.492ZM468.739 98.6667H489.272L460.739 160L432.206 98.6667H452.739L460.739 116L468.739 98.6667Z" fill="white"/>
<rect x="52" y="56" width="80" height="30" rx="15" fill="#00FF9C"/>
<path d="M52 116V71C52 62.7157 58.7157 56 67 56H82V101C82 109.284 75.2843 116 67 116H52Z" fill="#00FF9C"/>
<path d="M52 136C52 127.716 58.7157 121 67 121H117C125.284 121 132 127.716 132 136V136C132 144.284 125.284 151 117 151H52V136Z" fill="#00FF9C"/>
<path d="M52 151.142L66.1421 137L80.2843 151.142L73.2132 158.213C69.308 162.118 62.9763 162.118 59.0711 158.213L52 151.142Z" fill="#00FF9C"/>
</g>
<defs>
<clipPath id="clip0_1_2">
<rect width="512" height="188" fill="white"/>
</clipPath>
</defs>
</svg>
