<svg width="312" height="312" viewBox="0 0 312 312" fill="none" xmlns="http://www.w3.org/2000/svg">
<rect x="72" y="53" width="168" height="56.5498" rx="15" fill="#00FF9C"/>
<path d="M72 172V73C72 64.7157 78.7157 58 87 58H129V157C129 165.284 122.284 172 114 172H72Z" fill="#00FF9C"/>
<path d="M72 190.525C72 182.24 78.7157 175.525 87 175.525H225C233.284 175.525 240 182.24 240 190.525V217.074C240 225.359 233.284 232.074 225 232.074H72V190.525Z" fill="#00FF9C"/>
<path d="M72 232.342L101.698 205.684L131.397 232.342L109.14 252.32C105.03 256.009 98.3667 256.009 94.2567 252.32L72 232.342Z" fill="#00FF9C"/>
</svg>
